<?xml version="1.0" encoding="UTF-8"?>
<!DOCTYPE svg PUBLIC "-//W3C//DTD SVG 1.1//EN" "http://www.w3.org/Graphics/SVG/1.1/DTD/svg11.dtd">
<!-- Creator: CorelDRAW 2018 (64 Bit) -->
<svg xmlns="http://www.w3.org/2000/svg" xml:space="preserve" width="30px" height="30px" version="1.1" style="shape-rendering:geometricPrecision; text-rendering:geometricPrecision; image-rendering:optimizeQuality; fill-rule:evenodd; clip-rule:evenodd"
viewBox="0 0 30 30"
 xmlns:xlink="http://www.w3.org/1999/xlink"
 aria-hidden="true"
 role="img">
 <defs>
  <style type="text/css">
   <![CDATA[
    .fil0 {fill:orangered}
   ]]>
  </style>
 </defs>
 <g id="Camada_x0020_1">
  <metadata id="CorelCorpID_0Corel-Layer"/>
  <g id="_2018889933600">
   <path class="fil0" d="M16.67 7.94c0.8,0 1.29,0 2.07,0.23 0.26,0.08 0.42,0.12 0.64,0.2 1.02,0.33 1.92,0.99 2.66,1.73 0.64,0.63 1.03,1.3 1.41,2.09l0.24 0.61c0.06,0.18 0.13,0.48 0.18,0.71 0.04,0.21 0.12,0.55 0.12,0.76 0.04,1.23 0.13,0.9 -0.15,2.36 -0.1,0.52 -0.44,1.38 -0.73,1.83l-0.7 1.03 -0.85 0.86c-0.11,0.08 -0.13,0.13 -0.23,0.2l-0.77 0.53c-1.24,0.68 -2.09,0.98 -3.73,0.98 -1.82,0 -3.29,-0.72 -4.64,-1.85 -0.92,-0.76 -1.82,-2.36 -2.09,-3.55 -0.39,-1.7 -0.22,-2.84 0.36,-4.42 0.13,-0.38 0.4,-0.78 0.6,-1.13 0.18,-0.3 0.4,-0.51 0.58,-0.72 0.1,-0.12 0.09,-0.15 0.21,-0.27 1.23,-1.24 3.06,-2.18 4.82,-2.18zm-15.05 0.48l0 -0.21c0.04,-0.38 0.33,-0.74 1.1,-0.74l5.69 0c0.29,-0.42 0.9,-0.97 1.32,-1.3l1.09 -0.84c-1.03,0 -2.06,0 -3.09,0 -0.72,0 -2.19,0.28 -2.19,-0.89 0,-0.56 0.47,-0.89 1.04,-0.89l9.99 0c3.19,0 5.23,0.82 7.52,2.52 0.19,0.14 0.22,0.19 0.38,0.35 0.14,0.13 0.22,0.16 0.37,0.31 1.11,1.12 1.71,1.89 2.43,3.32 0.83,1.67 1.11,3.22 1.11,5.32 0,2.32 -0.97,4.73 -2.21,6.4 -0.12,0.16 -0.21,0.26 -0.33,0.41l-0.66 0.75c-0.63,0.63 -1.63,1.5 -2.39,1.9 -0.44,0.22 -0.93,0.53 -1.42,0.72 -1.44,0.57 -2.81,0.9 -4.8,0.9l-13.85 0c-1.01,0 -1.36,-1.04 -0.67,-1.61 0.29,-0.24 0.84,-0.17 1.34,-0.17 2.48,0 4.95,0 7.43,0 -0.09,-0.12 -0.1,-0.1 -0.23,-0.19l-1.38 -1.08c-0.2,-0.09 -3.12,-0.04 -3.57,-0.04 -1.67,0.01 -1.46,-1.14 -1.03,-1.55 0.32,-0.31 0.8,-0.22 1.4,-0.22 0.54,0 1.08,0 1.62,0l-1.13 -2.01c-0.13,-0.26 -0.19,-0.47 -0.3,-0.75 -1,-2.47 -0.83,-6.04 0.3,-8.41 0.05,-0.13 0.1,-0.19 0.15,-0.32 0.06,-0.14 0.05,-0.15 0.13,-0.29 0.11,-0.18 0.22,-0.34 0.27,-0.56 -1.04,0 -2.09,0 -3.13,0 -0.62,0 -1.61,0.17 -2.07,-0.29 -0.12,-0.12 -0.21,-0.32 -0.23,-0.54z"/>
   <path class="fil0" d="M11.6 14.84c0,1.03 0.22,1.98 0.68,2.77 0.08,0.13 0.18,0.3 0.26,0.42 0.19,0.26 0.4,0.47 0.58,0.73 0.12,-0.08 0.12,-0.08 0.21,-0.2l1.25 -1.73 -0.41 -0.69c-0.23,-0.57 -0.22,-0.66 -0.22,-1.24l-2.3 -0.74c0,0.3 -0.05,0.37 -0.05,0.68z"/>
   <path class="fil0" d="M17.82 12.12c0.8,0.07 1.54,1.06 1.68,1.15 0.36,-0.08 0.69,-0.24 1.06,-0.34l1.13 -0.33c-0.04,-0.48 -1,-1.51 -1.48,-1.87 -0.61,-0.45 -1.67,-0.99 -2.39,-1.01l0 2.4z"/>
   <path class="fil0" d="M19.97 14.95c0,0.6 -0.09,1.03 -0.36,1.52 -0.37,0.68 -0.4,0 1.14,2.29 0.74,-0.49 1.57,-2.39 1.57,-3.5l-0.05 -1.1c-0.56,0.27 -1.73,0.48 -2.3,0.79z"/>
   <path class="fil0" d="M12.23 12.6c0.3,0.02 1.8,0.58 2.19,0.67 0.19,-0.12 0.92,-1.08 1.68,-1.15l0 -2.4c-0.89,0.07 -2.16,0.75 -2.81,1.37 -0.28,0.27 -1.03,1.15 -1.06,1.51z"/>
   <path class="fil0" d="M14.58 19.81c0.62,0.29 1.35,0.51 2.04,0.52 0.21,0 0.26,0.05 0.37,0.05l1.27 -0.18c0.55,-0.14 0.88,-0.33 1.13,-0.39 -0.11,-0.16 -0.2,-0.3 -0.32,-0.46 -0.14,-0.19 -0.99,-1.31 -1.04,-1.47 -0.22,0 -0.32,0.07 -0.48,0.09 -0.58,0.09 -0.58,0.07 -1.13,0.01 -0.23,-0.03 -0.22,-0.1 -0.53,-0.1 -0.05,0.18 -0.97,1.4 -1.17,1.65 -0.1,0.13 -0.1,0.09 -0.14,0.28z"/>
   <path class="fil0" d="M16.83 16.31l0.26 0c0.64,0 1.2,-0.65 1.2,-1.31 0,-0.66 -0.56,-1.31 -1.2,-1.31 -0.6,0 -1.09,0.18 -1.34,0.81 -0.37,0.95 0.39,1.81 1.08,1.81z"/>
  </g>
 </g>
</svg>
