<?xml version="1.0" encoding="UTF-8"?>
<!DOCTYPE svg PUBLIC "-//W3C//DTD SVG 1.1//EN" "http://www.w3.org/Graphics/SVG/1.1/DTD/svg11.dtd">
<!-- Creator: CorelDRAW 2018 (64 Bit) -->
<svg xmlns="http://www.w3.org/2000/svg" xml:space="preserve" width="400px" height="182px" version="1.1" style="shape-rendering:geometricPrecision; text-rendering:geometricPrecision; image-rendering:optimizeQuality; fill-rule:evenodd; clip-rule:evenodd"
viewBox="0 0 400 181.82"
 xmlns:xlink="http://www.w3.org/1999/xlink">
 <defs>
  <style type="text/css">
   <![CDATA[
    .fil0 {fill:white}
    .fil1 {fill:red;fill-rule:nonzero}
   ]]>
  </style>
 </defs>
 <g id="Camada_x0020_1">
  <metadata id="CorelCorpID_0Corel-Layer"/>
  <rect class="fil0" x="1.8" y="35.11" width="396.39" height="111.61"/>
  <path class="fil1" d="M26.12 139.48l-14.01 -14.01 0 -67.21 14.01 -14.02 43.27 0 14.01 14.02 0 17.14 -19.18 0 0 -7.76 -4.15 -4.15 -24.69 0 -4.09 4.29 0 48.37 4.09 4.08 24.69 0 4.15 -4.15 0 -9.39 -18.84 0 0 -19.18 38.02 0 0 37.96 -14.01 14.01 -43.27 0zm0.75 -1.84l41.77 0 12.99 -12.92 0 -35.38 -34.42 0 0 15.58 18.85 0 0 11.91 -5.24 5.24 -26.06 0 -5.3 -5.04 0 -50.13 5.24 -5.24 26.12 0 5.24 5.24 0 6.66 15.57 0 0 -14.56 -12.99 -12.92 -41.77 0 -12.92 12.92 0 65.72 12.92 12.92z"/>
  <path id="1" class="fil1" d="M99.73 139.48l0 -95.24 58.71 0 14.01 14.02 0 29.52 -8.3 7.62 8.3 9.05 0 35.03 -19.25 0 0 -28.23 -6.8 -6.8 -27.42 0 0 35.03 -19.25 0zm1.84 -1.84l15.57 0 0 -35.03 30.07 0 7.82 7.82 0 27.21 15.58 0 0 -32.45 -8.98 -9.79 8.98 -8.37 0 -28.03 -12.92 -12.92 -56.12 0 0 91.56zm17.41 -52.45l30.07 0 4.15 -4.21 0 -13.34 -4.15 -4.15 -30.07 0 0 21.7zm-1.84 1.84l0 -25.37 32.66 0 5.23 5.24 0 14.89 -5.23 5.24 -32.66 0z"/>
  <path id="2" class="fil1" d="M188.1 139.48l0 -81.22 14.01 -14.02 43.94 0 14.02 14.02 0 81.22 -19.19 0 0 -28.03 -33.6 0 0 28.03 -19.18 0zm1.83 -1.84l15.51 0 0 -27.96 37.28 0 0 27.96 15.58 0 0 -78.64 -12.99 -12.92 -42.45 0 -12.93 12.92 0 78.64zm17.35 -45.37l33.6 0 0 -24.63 -4.15 -4.15 -25.3 0 -4.15 4.15 0 24.63zm-1.84 1.84l0 -27.21 5.24 -5.24 26.8 0 5.24 5.24 0 27.21 -37.28 0z"/>
  <path id="3" class="fil1" d="M289.73 139.48l-14.02 -14.01 0 -81.23 19.26 0 0 71.84 4.14 4.15 27.9 0 4.14 -4.15 0 -71.84 19.26 0 0 81.23 -14.02 14.01 -46.66 0zm0.75 -1.84l45.16 0 12.93 -12.92 0 -78.64 -15.58 0 0 70.75 -5.24 5.24 -29.38 0 -5.24 -5.24 0 -70.75 -15.58 0 0 78.64 12.93 12.92z"/>
  <path id="4" class="fil1" d="M371.56 113.09l-4.21 -47.01 0 -23.74 19.45 0 0 23.74 -4.22 47.01 -11.02 0zm1.77 -1.91l7.48 0 4.09 -45.17 0 -21.77 -15.65 0 0 21.77 4.08 45.17zm-6.8 28.3l0 -20 21.36 0 0 20 -21.36 0zm1.9 -1.9l17.55 0 0 -16.19 -17.55 0 0 16.19z"/>
 </g>
</svg>
